<svg xmlns="http://www.w3.org/2000/svg" xmlns:xlink="http://www.w3.org/1999/xlink" width="150" zoomAndPan="magnify" viewBox="0 0 112.5 112.499997" height="150" preserveAspectRatio="xMidYMid meet" version="1.0"><defs><clipPath id="aa86661d0d"><path d="M 0 0 L 112.003906 0 L 112.003906 112.003906 L 0 112.003906 Z M 0 0 " clip-rule="nonzero"/></clipPath><clipPath id="11c8ab0a28"><path d="M 0 0 L 112.003906 0 L 112.003906 112.003906 L 0 112.003906 Z M 0 0 " clip-rule="nonzero"/></clipPath><clipPath id="9528c0bace"><path d="M 15.679688 0 L 96.320312 0 C 104.980469 0 112.003906 7.019531 112.003906 15.679688 L 112.003906 96.320312 C 112.003906 104.980469 104.980469 112.003906 96.320312 112.003906 L 15.679688 112.003906 C 7.019531 112.003906 0 104.980469 0 96.320312 L 0 15.679688 C 0 7.019531 7.019531 0 15.679688 0 Z M 15.679688 0 " clip-rule="nonzero"/></clipPath><clipPath id="9a6bbc41f8"><path d="M 15.214844 14.175781 L 54.265625 14.175781 L 54.265625 97.800781 L 15.214844 97.800781 Z M 15.214844 14.175781 " clip-rule="nonzero"/></clipPath><clipPath id="ba0565b804"><path d="M 57.742188 14.175781 L 96.605469 14.175781 L 96.605469 97.800781 L 57.742188 97.800781 Z M 57.742188 14.175781 " clip-rule="nonzero"/></clipPath></defs><g clip-path="url(#aa86661d0d)"><path fill="#ffffff" d="M 0 0 L 112.003906 0 L 112.003906 112.003906 L 0 112.003906 Z M 0 0 " fill-opacity="1" fill-rule="nonzero"/><path fill="#ffffff" d="M 0 0 L 112.003906 0 L 112.003906 112.003906 L 0 112.003906 Z M 0 0 " fill-opacity="1" fill-rule="nonzero"/></g><g clip-path="url(#11c8ab0a28)"><g clip-path="url(#9528c0bace)"><path fill="#fb3c01" d="M 0 0 L 112.003906 0 L 112.003906 112.003906 L 0 112.003906 Z M 0 0 " fill-opacity="1" fill-rule="nonzero"/></g></g><g clip-path="url(#9a6bbc41f8)"><path fill="#ffffff" d="M 30.019531 16.371094 C 29.609375 17.9375 30.550781 19.539062 32.117188 19.945312 C 33.683594 20.351562 35.285156 19.414062 35.691406 17.847656 C 35.699219 17.808594 35.710938 17.769531 35.71875 17.734375 C 39.398438 18.097656 43.101562 20.375 45.730469 23.917969 C 48.488281 27.636719 49.84375 32.238281 50.714844 35.832031 C 51.503906 39.082031 52.101562 42.371094 52.503906 45.679688 C 52.027344 45.046875 51.480469 44.4375 50.867188 43.84375 L 50.867188 43.839844 C 50.867188 43.839844 50.863281 43.839844 50.859375 43.839844 C 49.730469 42.75 48.367188 41.734375 46.753906 40.777344 C 44.285156 39.132812 42.167969 37.582031 41.304688 35.265625 C 41.042969 34.566406 40.914062 33.824219 40.773438 33.042969 C 40.679688 32.5 40.578125 31.9375 40.429688 31.386719 C 39.933594 29.515625 38.878906 27.804688 37.453125 26.503906 C 37.527344 26.34375 37.585938 26.175781 37.632812 26.003906 C 38.039062 24.4375 37.097656 22.835938 35.53125 22.429688 C 33.964844 22.023438 32.367188 22.960938 31.957031 24.527344 C 31.550781 26.09375 32.492188 27.695312 34.058594 28.101562 C 35.074219 28.367188 36.101562 28.0625 36.8125 27.390625 C 38.039062 28.542969 38.945312 30.039062 39.378906 31.667969 C 39.515625 32.171875 39.605469 32.6875 39.703125 33.230469 C 39.84375 34.03125 39.988281 34.851562 40.285156 35.648438 C 40.664062 36.667969 41.269531 37.558594 41.980469 38.347656 C 41.699219 38.21875 41.417969 38.089844 41.140625 37.960938 C 39.347656 37.140625 37.496094 36.292969 35.777344 35.289062 C 32.449219 33.347656 30.15625 31.074219 28.945312 28.519531 C 29.625 28.140625 30.152344 27.5 30.363281 26.691406 C 30.769531 25.125 29.832031 23.523438 28.265625 23.117188 C 26.699219 22.710938 25.097656 23.652344 24.691406 25.21875 C 24.285156 26.785156 25.222656 28.382812 26.789062 28.792969 C 27.164062 28.890625 27.542969 28.910156 27.90625 28.859375 C 29.089844 31.4375 31.253906 33.734375 34.363281 35.703125 C 31.832031 35.433594 29.246094 35.71875 26.824219 36.5625 C 23.984375 37.550781 21.445312 39.28125 19.476562 41.535156 C 19.292969 41.441406 19.09375 41.367188 18.886719 41.3125 C 17.320312 40.90625 15.71875 41.84375 15.3125 43.410156 C 14.90625 44.976562 15.84375 46.578125 17.410156 46.984375 C 18.976562 47.390625 20.578125 46.453125 20.984375 44.886719 C 21.238281 43.902344 20.964844 42.910156 20.339844 42.203125 C 22.175781 40.113281 24.542969 38.507812 27.183594 37.589844 C 30.5625 36.414062 34.285156 36.394531 37.675781 37.535156 C 38.679688 38.03125 39.691406 38.496094 40.6875 38.953125 C 42.195312 39.644531 43.753906 40.359375 45.226562 41.160156 C 46.429688 41.816406 47.5 42.5 48.441406 43.210938 C 45.511719 42.675781 42.453125 42.898438 39.625 43.882812 C 36.929688 44.824219 34.496094 46.433594 32.574219 48.527344 C 32.351562 48.402344 32.113281 48.300781 31.855469 48.234375 C 30.289062 47.828125 28.6875 48.769531 28.28125 50.335938 C 27.875 51.902344 28.8125 53.5 30.378906 53.910156 C 31.945312 54.316406 33.546875 53.375 33.953125 51.808594 C 34.195312 50.878906 33.960938 49.933594 33.402344 49.238281 C 35.199219 47.289062 37.46875 45.789062 39.984375 44.914062 C 43.296875 43.757812 46.945312 43.71875 50.28125 44.796875 C 51.34375 45.847656 52.167969 46.964844 52.765625 48.15625 C 52.886719 49.464844 52.976562 50.777344 53.035156 52.089844 C 53.214844 56.007812 53.125 59.933594 52.765625 63.839844 C 52.167969 65.03125 51.34375 66.148438 50.28125 67.199219 C 46.945312 68.277344 43.296875 68.238281 39.984375 67.082031 C 37.46875 66.207031 35.199219 64.707031 33.402344 62.757812 C 33.960938 62.0625 34.195312 61.117188 33.953125 60.1875 C 33.546875 58.621094 31.945312 57.679688 30.378906 58.085938 C 28.8125 58.492188 27.875 60.09375 28.28125 61.660156 C 28.6875 63.226562 30.289062 64.167969 31.855469 63.761719 C 32.113281 63.691406 32.351562 63.59375 32.574219 63.46875 C 34.496094 65.558594 36.929688 67.171875 39.625 68.109375 C 42.453125 69.097656 45.511719 69.320312 48.441406 68.785156 C 47.5 69.496094 46.429688 70.179688 45.226562 70.832031 C 43.753906 71.636719 42.195312 72.351562 40.6875 73.042969 C 39.691406 73.5 38.679688 73.964844 37.675781 74.460938 C 34.285156 75.601562 30.5625 75.582031 27.183594 74.40625 C 24.542969 73.488281 22.175781 71.882812 20.339844 69.792969 C 20.964844 69.085938 21.238281 68.09375 20.984375 67.109375 C 20.578125 65.542969 18.976562 64.605469 17.410156 65.011719 C 15.84375 65.417969 14.90625 67.019531 15.3125 68.585938 C 15.71875 70.152344 17.320312 71.089844 18.886719 70.683594 C 19.09375 70.628906 19.292969 70.554688 19.476562 70.460938 C 21.445312 72.714844 23.984375 74.445312 26.824219 75.433594 C 29.246094 76.277344 31.832031 76.5625 34.363281 76.292969 C 31.253906 78.261719 29.089844 80.558594 27.90625 83.132812 C 27.542969 83.085938 27.164062 83.105469 26.789062 83.203125 C 25.222656 83.613281 24.285156 85.210938 24.691406 86.777344 C 25.097656 88.34375 26.699219 89.285156 28.265625 88.878906 C 29.832031 88.46875 30.769531 86.871094 30.363281 85.304688 C 30.152344 84.496094 29.625 83.851562 28.945312 83.476562 C 30.15625 80.921875 32.449219 78.648438 35.777344 76.707031 C 37.496094 75.703125 39.347656 74.855469 41.140625 74.035156 C 41.417969 73.90625 41.699219 73.777344 41.980469 73.648438 C 41.269531 74.4375 40.664062 75.328125 40.285156 76.347656 C 39.988281 77.140625 39.84375 77.964844 39.703125 78.765625 C 39.605469 79.308594 39.515625 79.824219 39.378906 80.328125 C 38.945312 81.957031 38.039062 83.449219 36.8125 84.601562 C 36.101562 83.933594 35.074219 83.628906 34.058594 83.894531 C 32.492188 84.300781 31.550781 85.902344 31.957031 87.46875 C 32.367188 89.035156 33.964844 89.972656 35.53125 89.566406 C 37.097656 89.160156 38.039062 87.558594 37.632812 85.992188 C 37.585938 85.816406 37.527344 85.652344 37.453125 85.492188 C 38.878906 84.1875 39.933594 82.480469 40.429688 80.609375 C 40.578125 80.058594 40.679688 79.496094 40.773438 78.953125 C 40.914062 78.171875 41.042969 77.429688 41.304688 76.730469 C 42.167969 74.414062 44.285156 72.863281 46.753906 71.21875 C 48.367188 70.261719 49.730469 69.242188 50.859375 68.15625 C 50.863281 68.15625 50.867188 68.15625 50.867188 68.15625 L 50.867188 68.148438 C 51.480469 67.558594 52.027344 66.949219 52.503906 66.316406 C 52.101562 69.625 51.503906 72.914062 50.714844 76.164062 C 49.84375 79.757812 48.488281 84.359375 45.730469 88.078125 C 43.101562 91.621094 39.398438 93.898438 35.71875 94.261719 C 35.710938 94.226562 35.699219 94.1875 35.691406 94.148438 C 35.285156 92.582031 33.683594 91.644531 32.117188 92.050781 C 30.550781 92.457031 29.609375 94.058594 30.019531 95.625 C 30.425781 97.191406 32.023438 98.128906 33.589844 97.722656 C 34.75 97.421875 35.566406 96.464844 35.746094 95.355469 C 37.746094 95.171875 39.710938 94.503906 41.597656 93.351562 C 43.480469 92.203125 45.214844 90.605469 46.605469 88.726562 C 49.480469 84.851562 50.875 80.113281 51.773438 76.421875 C 53.128906 70.832031 53.925781 65.109375 54.148438 59.363281 C 54.375 53.609375 54.023438 47.832031 53.101562 42.148438 C 52.742188 39.941406 52.300781 37.746094 51.773438 35.574219 C 50.875 31.882812 49.480469 27.144531 46.605469 23.269531 C 45.214844 21.390625 43.480469 19.792969 41.597656 18.644531 C 39.710938 17.492188 37.746094 16.820312 35.746094 16.640625 C 35.566406 15.53125 34.75 14.574219 33.589844 14.273438 C 32.023438 13.867188 30.425781 14.804688 30.019531 16.371094 " fill-opacity="1" fill-rule="nonzero"/></g><g clip-path="url(#ba0565b804)"><path fill="#ffffff" d="M 81.976562 16.371094 C 82.382812 17.9375 81.441406 19.539062 79.875 19.945312 C 78.308594 20.351562 76.710938 19.414062 76.300781 17.847656 C 76.292969 17.808594 76.285156 17.769531 76.277344 17.734375 C 72.59375 18.097656 68.890625 20.375 66.265625 23.917969 C 63.507812 27.636719 62.152344 32.238281 61.277344 35.832031 C 60.488281 39.082031 59.894531 42.371094 59.492188 45.679688 C 59.96875 45.046875 60.511719 44.4375 61.125 43.84375 L 61.125 43.839844 C 61.128906 43.839844 61.128906 43.839844 61.132812 43.839844 C 62.265625 42.75 63.628906 41.734375 65.238281 40.777344 C 67.710938 39.132812 69.824219 37.582031 70.6875 35.265625 C 70.949219 34.566406 71.082031 33.824219 71.21875 33.042969 C 71.316406 32.5 71.414062 31.9375 71.5625 31.386719 C 72.0625 29.515625 73.117188 27.804688 74.542969 26.503906 C 74.46875 26.34375 74.40625 26.175781 74.363281 26.003906 C 73.953125 24.4375 74.894531 22.835938 76.460938 22.429688 C 78.027344 22.023438 79.628906 22.960938 80.035156 24.527344 C 80.441406 26.09375 79.5 27.695312 77.933594 28.101562 C 76.921875 28.367188 75.890625 28.0625 75.183594 27.390625 C 73.957031 28.542969 73.046875 30.039062 72.613281 31.667969 C 72.480469 32.171875 72.386719 32.6875 72.292969 33.230469 C 72.152344 34.03125 72.003906 34.851562 71.710938 35.648438 C 71.328125 36.667969 70.722656 37.558594 70.011719 38.347656 C 70.292969 38.21875 70.574219 38.089844 70.851562 37.960938 C 72.644531 37.140625 74.496094 36.292969 76.214844 35.289062 C 79.546875 33.347656 81.835938 31.074219 83.046875 28.519531 C 82.371094 28.140625 81.839844 27.5 81.628906 26.691406 C 81.222656 25.125 82.164062 23.523438 83.730469 23.117188 C 85.296875 22.710938 86.894531 23.652344 87.304688 25.21875 C 87.710938 26.785156 86.769531 28.382812 85.203125 28.792969 C 84.828125 28.890625 84.453125 28.910156 84.089844 28.859375 C 82.90625 31.4375 80.738281 33.734375 77.628906 35.703125 C 80.164062 35.433594 82.75 35.71875 85.167969 36.5625 C 88.007812 37.550781 90.550781 39.28125 92.515625 41.535156 C 92.703125 41.441406 92.898438 41.367188 93.109375 41.3125 C 94.675781 40.90625 96.273438 41.84375 96.683594 43.410156 C 97.089844 44.976562 96.148438 46.578125 94.582031 46.984375 C 93.015625 47.390625 91.414062 46.453125 91.007812 44.886719 C 90.753906 43.902344 91.027344 42.910156 91.652344 42.203125 C 89.816406 40.113281 87.449219 38.507812 84.808594 37.589844 C 81.433594 36.414062 77.710938 36.394531 74.320312 37.535156 C 73.316406 38.03125 72.300781 38.496094 71.308594 38.953125 C 69.796875 39.644531 68.238281 40.359375 66.765625 41.160156 C 65.566406 41.816406 64.496094 42.5 63.550781 43.210938 C 66.484375 42.675781 69.539062 42.898438 72.367188 43.882812 C 75.066406 44.824219 77.496094 46.433594 79.417969 48.527344 C 79.640625 48.402344 79.882812 48.300781 80.140625 48.234375 C 81.707031 47.828125 83.304688 48.769531 83.710938 50.335938 C 84.121094 51.902344 83.179688 53.5 81.613281 53.910156 C 80.046875 54.316406 78.445312 53.375 78.039062 51.808594 C 77.796875 50.878906 78.03125 49.933594 78.589844 49.238281 C 76.792969 47.289062 74.523438 45.789062 72.007812 44.914062 C 68.695312 43.757812 65.050781 43.71875 61.710938 44.796875 C 60.652344 45.847656 59.828125 46.964844 59.226562 48.15625 C 59.105469 49.464844 59.015625 50.777344 58.957031 52.089844 C 58.777344 56.007812 58.867188 59.933594 59.226562 63.839844 C 59.828125 65.03125 60.652344 66.148438 61.710938 67.199219 C 65.050781 68.277344 68.695312 68.238281 72.007812 67.082031 C 74.523438 66.207031 76.792969 64.707031 78.589844 62.757812 C 78.03125 62.0625 77.796875 61.117188 78.039062 60.1875 C 78.445312 58.621094 80.046875 57.679688 81.613281 58.085938 C 83.179688 58.492188 84.121094 60.09375 83.710938 61.660156 C 83.304688 63.226562 81.707031 64.167969 80.140625 63.761719 C 79.882812 63.691406 79.640625 63.59375 79.417969 63.46875 C 77.496094 65.558594 75.066406 67.171875 72.367188 68.109375 C 69.539062 69.097656 66.484375 69.320312 63.550781 68.785156 C 64.496094 69.496094 65.566406 70.179688 66.765625 70.832031 C 68.238281 71.636719 69.796875 72.351562 71.308594 73.042969 C 72.300781 73.5 73.316406 73.964844 74.320312 74.460938 C 77.710938 75.601562 81.433594 75.582031 84.808594 74.40625 C 87.449219 73.488281 89.816406 71.882812 91.652344 69.792969 C 91.027344 69.085938 90.753906 68.09375 91.007812 67.109375 C 91.414062 65.542969 93.015625 64.605469 94.582031 65.011719 C 96.148438 65.417969 97.089844 67.019531 96.683594 68.585938 C 96.273438 70.152344 94.675781 71.089844 93.109375 70.683594 C 92.898438 70.628906 92.703125 70.554688 92.515625 70.460938 C 90.550781 72.714844 88.007812 74.445312 85.167969 75.433594 C 82.75 76.277344 80.164062 76.5625 77.628906 76.292969 C 80.738281 78.261719 82.90625 80.558594 84.089844 83.132812 C 84.453125 83.085938 84.828125 83.105469 85.203125 83.203125 C 86.769531 83.613281 87.710938 85.210938 87.304688 86.777344 C 86.894531 88.34375 85.296875 89.285156 83.730469 88.878906 C 82.164062 88.46875 81.222656 86.871094 81.628906 85.304688 C 81.839844 84.496094 82.371094 83.851562 83.046875 83.476562 C 81.835938 80.921875 79.546875 78.648438 76.214844 76.707031 C 74.496094 75.703125 72.644531 74.855469 70.851562 74.035156 C 70.574219 73.90625 70.292969 73.777344 70.011719 73.648438 C 70.722656 74.4375 71.328125 75.328125 71.710938 76.347656 C 72.003906 77.140625 72.152344 77.964844 72.292969 78.765625 C 72.386719 79.308594 72.480469 79.824219 72.613281 80.328125 C 73.046875 81.957031 73.957031 83.449219 75.183594 84.601562 C 75.890625 83.933594 76.921875 83.628906 77.933594 83.894531 C 79.5 84.300781 80.441406 85.902344 80.035156 87.46875 C 79.628906 89.035156 78.027344 89.972656 76.460938 89.566406 C 74.894531 89.160156 73.953125 87.558594 74.363281 85.992188 C 74.40625 85.816406 74.46875 85.652344 74.542969 85.492188 C 73.117188 84.1875 72.0625 82.480469 71.5625 80.609375 C 71.414062 80.058594 71.316406 79.496094 71.21875 78.953125 C 71.082031 78.171875 70.949219 77.429688 70.6875 76.730469 C 69.824219 74.414062 67.710938 72.863281 65.238281 71.21875 C 63.628906 70.261719 62.265625 69.242188 61.132812 68.15625 C 61.128906 68.15625 61.128906 68.15625 61.125 68.15625 L 61.125 68.148438 C 60.511719 67.558594 59.96875 66.949219 59.492188 66.316406 C 59.894531 69.625 60.488281 72.914062 61.277344 76.164062 C 62.152344 79.757812 63.507812 84.359375 66.265625 88.078125 C 68.890625 91.621094 72.59375 93.898438 76.277344 94.261719 C 76.285156 94.226562 76.292969 94.1875 76.300781 94.148438 C 76.710938 92.582031 78.308594 91.644531 79.875 92.050781 C 81.441406 92.457031 82.382812 94.058594 81.976562 95.625 C 81.570312 97.191406 79.96875 98.128906 78.402344 97.722656 C 77.242188 97.421875 76.425781 96.464844 76.246094 95.355469 C 74.25 95.171875 72.285156 94.503906 70.394531 93.351562 C 68.511719 92.203125 66.78125 90.605469 65.390625 88.726562 C 62.515625 84.851562 61.117188 80.113281 60.21875 76.421875 C 58.863281 70.832031 58.066406 65.109375 57.84375 59.363281 C 57.621094 53.609375 57.972656 47.832031 58.890625 42.148438 C 59.25 39.941406 59.691406 37.746094 60.21875 35.574219 C 61.117188 31.882812 62.515625 27.144531 65.390625 23.269531 C 66.78125 21.390625 68.511719 19.792969 70.394531 18.644531 C 72.285156 17.492188 74.25 16.820312 76.246094 16.640625 C 76.425781 15.53125 77.242188 14.574219 78.402344 14.273438 C 79.96875 13.867188 81.570312 14.804688 81.976562 16.371094 " fill-opacity="1" fill-rule="nonzero"/></g></svg>