<svg xmlns="http://www.w3.org/2000/svg" xmlns:xlink="http://www.w3.org/1999/xlink" width="150" zoomAndPan="magnify" viewBox="0 0 112.5 112.499997" height="150" preserveAspectRatio="xMidYMid meet" version="1.0"><defs><clipPath id="121f09260f"><path d="M 0 0 L 112.003906 0 L 112.003906 112.003906 L 0 112.003906 Z M 0 0 " clip-rule="nonzero"/></clipPath><clipPath id="bcc74bc9c4"><path d="M 13.441406 0 L 98.5625 0 C 105.984375 0 112.003906 6.015625 112.003906 13.441406 L 112.003906 98.5625 C 112.003906 105.984375 105.984375 112.003906 98.5625 112.003906 L 13.441406 112.003906 C 6.015625 112.003906 0 105.984375 0 98.5625 L 0 13.441406 C 0 6.015625 6.015625 0 13.441406 0 Z M 13.441406 0 " clip-rule="nonzero"/></clipPath><clipPath id="d943adf969"><path d="M 9.832031 8.058594 L 103.617188 8.058594 L 103.617188 103.617188 L 9.832031 103.617188 Z M 9.832031 8.058594 " clip-rule="nonzero"/></clipPath></defs><g clip-path="url(#121f09260f)"><g clip-path="url(#bcc74bc9c4)"><path fill="#fb3c01" d="M 0 0 L 112.003906 0 L 112.003906 112.003906 L 0 112.003906 Z M 0 0 " fill-opacity="1" fill-rule="nonzero"/></g></g><g clip-path="url(#d943adf969)"><path fill="#ffffff" d="M 68.257812 13.351562 C 69.242188 17.128906 66.972656 20.988281 63.199219 21.96875 C 59.417969 22.949219 55.5625 20.683594 54.582031 16.90625 C 54.554688 16.816406 54.535156 16.722656 54.515625 16.632812 C 45.636719 17.515625 36.707031 23 30.375 31.542969 C 23.726562 40.511719 20.460938 51.609375 18.355469 60.273438 C 16.453125 68.109375 15.015625 76.035156 14.046875 84.019531 C 15.195312 82.488281 16.507812 81.015625 17.988281 79.59375 L 17.984375 79.582031 C 17.992188 79.582031 18 79.578125 18.007812 79.574219 C 20.730469 76.957031 24.019531 74.503906 27.902344 72.199219 C 33.859375 68.234375 38.960938 64.496094 41.042969 58.910156 C 41.675781 57.222656 41.992188 55.433594 42.324219 53.546875 C 42.558594 52.234375 42.796875 50.882812 43.148438 49.550781 C 44.351562 45.046875 46.894531 40.921875 50.335938 37.777344 C 50.15625 37.398438 50.007812 36.996094 49.898438 36.574219 C 48.917969 32.792969 51.183594 28.9375 54.960938 27.957031 C 58.738281 26.972656 62.597656 29.242188 63.578125 33.019531 C 64.5625 36.792969 62.292969 40.652344 58.515625 41.632812 C 56.070312 42.269531 53.589844 41.542969 51.878906 39.921875 C 48.921875 42.703125 46.734375 46.304688 45.6875 50.226562 C 45.363281 51.449219 45.140625 52.691406 44.910156 54.003906 C 44.570312 55.925781 44.21875 57.914062 43.503906 59.828125 C 42.585938 62.289062 41.128906 64.4375 39.414062 66.339844 C 40.09375 66.027344 40.769531 65.714844 41.441406 65.40625 C 45.761719 63.425781 50.230469 61.378906 54.371094 58.964844 C 62.398438 54.28125 67.925781 48.800781 70.839844 42.636719 C 69.207031 41.730469 67.933594 40.1875 67.425781 38.234375 C 66.441406 34.457031 68.710938 30.597656 72.484375 29.617188 C 76.261719 28.636719 80.121094 30.902344 81.101562 34.679688 C 82.085938 38.457031 79.816406 42.316406 76.042969 43.296875 C 75.136719 43.53125 74.226562 43.578125 73.351562 43.464844 C 70.5 49.675781 65.273438 55.210938 57.777344 59.964844 C 63.886719 59.308594 70.121094 59.996094 75.957031 62.03125 C 82.800781 64.414062 88.929688 68.589844 93.675781 74.023438 C 94.121094 73.796875 94.597656 73.617188 95.101562 73.484375 C 98.878906 72.503906 102.734375 74.769531 103.71875 78.546875 C 104.699219 82.324219 102.433594 86.179688 98.652344 87.164062 C 94.878906 88.144531 91.019531 85.878906 90.039062 82.101562 C 89.421875 79.734375 90.082031 77.335938 91.59375 75.632812 C 87.160156 70.597656 81.457031 66.726562 75.09375 64.511719 C 66.949219 61.671875 57.972656 61.628906 49.796875 64.378906 C 47.378906 65.574219 44.9375 66.695312 42.535156 67.792969 C 38.898438 69.464844 35.136719 71.1875 31.585938 73.125 C 28.6875 74.703125 26.109375 76.347656 23.832031 78.066406 C 30.902344 76.769531 38.273438 77.3125 45.09375 79.6875 C 51.597656 81.953125 57.457031 85.839844 62.097656 90.882812 C 62.628906 90.578125 63.207031 90.339844 63.832031 90.179688 C 67.605469 89.195312 71.464844 91.460938 72.445312 95.238281 C 73.429688 99.015625 71.160156 102.875 67.386719 103.855469 C 63.605469 104.839844 59.75 102.570312 58.769531 98.792969 C 58.183594 96.546875 58.75 94.273438 60.097656 92.589844 C 55.761719 87.894531 50.292969 84.28125 44.230469 82.167969 C 36.238281 79.386719 27.445312 79.289062 19.398438 81.882812 C 16.84375 84.417969 14.855469 87.113281 13.410156 89.988281 C 13.117188 93.144531 12.902344 96.308594 12.757812 99.476562 C 12.328125 108.917969 12.542969 118.386719 13.410156 127.800781 C 14.855469 130.675781 16.84375 133.367188 19.398438 135.90625 C 27.445312 138.5 36.238281 138.402344 44.230469 135.621094 C 50.292969 133.507812 55.761719 129.890625 60.097656 125.195312 C 58.75 123.515625 58.183594 121.242188 58.769531 118.992188 C 59.75 115.214844 63.605469 112.949219 67.386719 113.933594 C 71.160156 114.914062 73.429688 118.769531 72.445312 122.546875 C 71.464844 126.324219 67.605469 128.59375 63.832031 127.609375 C 63.207031 127.449219 62.628906 127.207031 62.097656 126.902344 C 57.457031 131.949219 51.597656 135.835938 45.09375 138.101562 C 38.273438 140.476562 30.902344 141.019531 23.832031 139.722656 C 26.109375 141.441406 28.6875 143.085938 31.585938 144.664062 C 35.136719 146.601562 38.898438 148.324219 42.535156 149.992188 C 44.9375 151.09375 47.378906 152.214844 49.796875 153.410156 C 57.972656 156.160156 66.949219 156.113281 75.09375 153.277344 C 81.457031 151.0625 87.160156 147.191406 91.59375 142.15625 C 90.082031 140.453125 89.421875 138.054688 90.039062 135.6875 C 91.019531 131.910156 94.878906 129.644531 98.652344 130.625 C 102.433594 131.605469 104.699219 135.464844 103.71875 139.242188 C 102.734375 143.019531 98.878906 145.285156 95.101562 144.304688 C 94.597656 144.171875 94.121094 143.992188 93.675781 143.765625 C 88.929688 149.199219 82.800781 153.375 75.957031 155.757812 C 70.121094 157.789062 63.886719 158.480469 57.777344 157.824219 C 65.273438 162.578125 70.5 168.113281 73.351562 174.324219 C 74.226562 174.210938 75.136719 174.253906 76.042969 174.492188 C 79.816406 175.472656 82.085938 179.332031 81.101562 183.109375 C 80.121094 186.886719 76.261719 189.152344 72.484375 188.171875 C 68.710938 187.1875 66.441406 183.332031 67.425781 179.554688 C 67.933594 177.601562 69.207031 176.054688 70.839844 175.148438 C 67.925781 168.988281 62.398438 163.507812 54.371094 158.824219 C 50.230469 156.410156 45.761719 154.363281 41.441406 152.382812 C 40.769531 152.074219 40.09375 151.761719 39.414062 151.449219 C 41.128906 153.347656 42.585938 155.5 43.503906 157.960938 C 44.21875 159.875 44.570312 161.863281 44.910156 163.785156 C 45.140625 165.097656 45.363281 166.339844 45.6875 167.558594 C 46.734375 171.484375 48.921875 175.085938 51.878906 177.863281 C 53.589844 176.246094 56.070312 175.519531 58.515625 176.152344 C 62.292969 177.136719 64.5625 180.992188 63.578125 184.769531 C 62.597656 188.546875 58.738281 190.8125 54.960938 189.832031 C 51.183594 188.851562 48.917969 184.992188 49.898438 181.214844 C 50.007812 180.792969 50.15625 180.390625 50.335938 180.011719 C 46.894531 176.867188 44.351562 172.742188 43.148438 168.234375 C 42.796875 166.90625 42.558594 165.550781 42.324219 164.242188 C 41.992188 162.351562 41.675781 160.566406 41.042969 158.878906 C 38.960938 153.292969 33.859375 149.554688 27.902344 145.589844 C 24.019531 143.28125 20.730469 140.832031 18.007812 138.210938 C 18 138.210938 17.992188 138.207031 17.984375 138.203125 L 17.988281 138.195312 C 16.507812 136.769531 15.195312 135.296875 14.046875 133.769531 C 15.015625 141.75 16.453125 149.679688 18.355469 157.515625 C 20.460938 166.179688 23.726562 177.277344 30.375 186.246094 C 36.707031 194.789062 45.636719 200.273438 54.515625 201.15625 C 54.535156 201.066406 54.554688 200.972656 54.582031 200.882812 C 55.5625 197.105469 59.417969 194.839844 63.199219 195.820312 C 66.972656 196.800781 69.242188 200.660156 68.257812 204.4375 C 67.277344 208.214844 63.417969 210.480469 59.640625 209.5 C 56.84375 208.773438 54.878906 206.46875 54.445312 203.789062 C 49.628906 203.351562 44.890625 201.734375 40.339844 198.960938 C 35.796875 196.191406 31.621094 192.332031 28.265625 187.808594 C 21.335938 178.460938 17.96875 167.039062 15.804688 158.136719 C 12.535156 144.660156 10.609375 130.863281 10.074219 117.007812 C 9.535156 103.132812 10.378906 89.207031 12.601562 75.5 C 13.464844 70.179688 14.53125 64.890625 15.804688 59.652344 C 17.96875 50.746094 21.335938 39.328125 28.265625 29.980469 C 31.621094 25.453125 35.796875 21.597656 40.339844 18.828125 C 44.890625 16.054688 49.628906 14.4375 54.445312 14 C 54.878906 11.320312 56.84375 9.015625 59.640625 8.289062 C 63.417969 7.308594 67.277344 9.574219 68.257812 13.351562 " fill-opacity="1" fill-rule="nonzero"/></g></svg>